<?xml version="1.0" encoding="UTF-8"?>
<!DOCTYPE svg PUBLIC "-//W3C//DTD SVG 1.1//EN" "http://www.w3.org/Graphics/SVG/1.1/DTD/svg11.dtd">
<svg version="1.1" xmlns="http://www.w3.org/2000/svg" xmlns:xlink="http://www.w3.org/1999/xlink" x="0" y="0" width="46" height="40" viewBox="0, 0, 46, 40">
  <g id="all">
    <g>
      <path d="M11.093,10 C14.671,16.615 22.644,20.155 28.89,16.868 C31.588,15.447 34.822,12.96 37,11" fill-opacity="0" stroke="#FFFFFF" stroke-width="1" stroke-dasharray="3,2" stroke-linecap="round" stroke-linejoin="round"/>
      <path d="M15,7 C16.772,11.759 20,13 24.931,11.901 C27.637,11.297 29.576,8.747 31.349,6.777" fill-opacity="0" stroke="#FFFFFF" stroke-width="1" stroke-dasharray="3,2" stroke-linecap="round" stroke-linejoin="round"/>
      <path d="M7.093,19.008 C17.103,22.039 29.771,21.178 39.599,19.213" fill-opacity="0" stroke="#FFFFFF" stroke-width="1" stroke-dasharray="3,2" stroke-linecap="round" stroke-linejoin="round"/>
      <path d="M10,27 C17.429,22.97 30.174,22.438 37,28" fill-opacity="0" stroke="#FFFFFF" stroke-width="1" stroke-dasharray="3,2" stroke-linecap="round" stroke-linejoin="round"/>
      <path d="M13,30 C18.071,26.285 27.611,26.661 33,31" fill-opacity="0" stroke="#FFFFFF" stroke-width="1" stroke-dasharray="3,2" stroke-linecap="round" stroke-linejoin="round"/>
    </g>
  </g>
  <g id="Layer_2">
    <g>
      <path d="M24.002,33.995 C15.878,30.455 7.193,20.028 12.963,10.863 C15.065,7.526 20.971,5.909 24.002,4" fill-opacity="0" stroke="#FFFFFF" stroke-width="1" stroke-dasharray="3,2" stroke-linecap="round" stroke-linejoin="round"/>
      <path d="M24.002,33.995 C39.582,28.005 40.703,8.509 24.002,4" fill-opacity="0" stroke="#FFFFFF" stroke-width="1" stroke-dasharray="3,2" stroke-linecap="round" stroke-linejoin="round"/>
      <path d="M23.5,33.995 C14.439,33.995 7.093,27.28 7.093,18.997 C7.093,10.715 14.439,4 23.5,4 C32.561,4 39.906,10.715 39.906,18.997 C39.906,27.28 32.561,33.995 23.5,33.995 z" fill-opacity="0" stroke="#FFFFFF" stroke-width="1"/>
      <path d="M24,33.995 C24.051,24.127 23.942,13.85 24.002,4" fill-opacity="0" stroke="#FFFFFF" stroke-width="1" stroke-dasharray="3,2" stroke-linecap="round" stroke-linejoin="round"/>
    </g>
  </g>
</svg>
