<?xml version="1.0" encoding="UTF-8"?>
<!DOCTYPE svg PUBLIC "-//W3C//DTD SVG 1.1//EN" "http://www.w3.org/Graphics/SVG/1.1/DTD/svg11.dtd">
<svg version="1.1" xmlns="http://www.w3.org/2000/svg" xmlns:xlink="http://www.w3.org/1999/xlink" x="0" y="0" width="50" height="50" viewBox="0, 0, 400, 400">
  <defs>
    <linearGradient id="Gradient_1" gradientUnits="userSpaceOnUse" x1="32.626" y1="205.094" x2="372.77" y2="205.094">
      <stop offset="0" stop-color="#AB0000"/>
      <stop offset="1" stop-color="#0085DE"/>
    </linearGradient>
  </defs>
  <g id="Layer_2">
    <g>
      <path d="M202.698,378.914 C108.77,378.914 32.626,301.092 32.626,205.094 C32.626,109.095 108.77,31.274 202.698,31.274 C296.626,31.274 372.77,109.095 372.77,205.094 C372.77,301.092 296.626,378.914 202.698,378.914 z" fill="url(#Gradient_1)"/>
      <path d="M202.698,378.914 C108.77,378.914 32.626,301.092 32.626,205.094 C32.626,109.095 108.77,31.274 202.698,31.274 C296.626,31.274 372.77,109.095 372.77,205.094 C372.77,301.092 296.626,378.914 202.698,378.914 z" fill-opacity="0" stroke="#AB0000" stroke-width="0.6"/>
    </g>
    <g>
      <path d="M197.626,315.507 C136.74,315.507 87.382,266.073 87.382,205.094 C87.382,144.114 136.74,94.681 197.626,94.681 C258.512,94.681 307.869,144.114 307.869,205.094 C307.869,266.073 258.512,315.507 197.626,315.507 z" fill="#000000"/>
      <path d="M197.626,315.507 C136.74,315.507 87.382,266.073 87.382,205.094 C87.382,144.114 136.74,94.681 197.626,94.681 C258.512,94.681 307.869,144.114 307.869,205.094 C307.869,266.073 258.512,315.507 197.626,315.507 z" fill-opacity="0" stroke="#000000" stroke-width="0.6"/>
    </g>
    <g>
      <path d="M197.626,87.579 C184.739,87.579 174.292,76.981 174.292,63.907 C174.292,50.833 184.739,40.235 197.626,40.235 C210.512,40.235 220.959,50.833 220.959,63.907 C220.959,76.981 210.512,87.579 197.626,87.579 z" fill="#000000"/>
      <path d="M197.626,87.579 C184.739,87.579 174.292,76.981 174.292,63.907 C174.292,50.833 184.739,40.235 197.626,40.235 C210.512,40.235 220.959,50.833 220.959,63.907 C220.959,76.981 210.512,87.579 197.626,87.579 z" fill-opacity="0" stroke="#000000" stroke-width="0.6"/>
    </g>
    <path d="M195.956,137.56 C172.304,169.494 161.915,212.018 158.061,251.211" fill-opacity="0" stroke="#FFFFFF" stroke-width="18" stroke-linecap="round" stroke-linejoin="round"/>
    <path d="M241.73,248.689 C239.322,209.023 219.946,169.77 197.706,137.269" fill-opacity="0" stroke="#FFFFFF" stroke-width="18" stroke-linecap="round" stroke-linejoin="round"/>
    <path d="M167.188,206.727 C188.978,206.24 210.914,206.657 232.321,208.696" fill-opacity="0" stroke="#FFFFFF" stroke-width="18" stroke-linecap="round" stroke-linejoin="round"/>
  </g>
</svg>
