<?xml version="1.0" encoding="UTF-8"?>
<!DOCTYPE svg PUBLIC "-//W3C//DTD SVG 1.1//EN" "http://www.w3.org/Graphics/SVG/1.1/DTD/svg11.dtd">
<svg version="1.1" xmlns="http://www.w3.org/2000/svg" xmlns:xlink="http://www.w3.org/1999/xlink" x="0" y="0" width="46" height="40" viewBox="0, 0, 46, 40">
  <g id="all">
    <g>
      <path d="M21.788,33.526 L21.788,29.746 L19.676,30.934 L18.6,30.318 L18.6,28.99 L21.732,27.21 L21.732,24.726 L19.46,26.186 L19.46,23.554 L17.288,24.802 L17.288,28.374 L16.1,29.11 L15.096,28.446 L15.096,26.054 L11.8,27.914 L10.392,27.322 L10.392,25.814 L13.852,23.922 L11.688,22.838 L11.688,21.454 L12.916,20.782 L16.02,22.61 L18.176,21.366 L18.124,21.326 L15.92,20.062 L18.06,18.734 L15.912,17.49 L12.808,19.31 L11.644,18.73 L11.644,17.354 L13.744,16.174 L10.392,14.354 L10.392,12.846 L11.68,12.182 L14.988,14.09 L14.988,11.662 L15.984,10.99 L17.2,11.694 L17.192,15.33 L19.412,16.598 L19.404,14.026 L21.732,15.274 L21.732,12.79 L18.6,11.01 L18.6,9.69 L19.676,9.066 L21.788,10.254 L21.788,6.482 L23,5.694 L24.216,6.482 L24.216,10.254 L26.404,9.042 L27.504,9.77 L27.504,10.958 L24.264,12.794 L24.264,15.278 L26.484,13.926 L26.484,16.63 L28.764,15.386 L28.764,11.494 L29.864,10.978 L31.02,11.494 L31.02,13.978 L34.42,12.142 L35.608,12.87 L35.608,14.278 L32.288,16.166 L34.364,17.33 L34.364,18.678 L33.288,19.27 L30.1,17.386 L27.896,18.786 L30.028,20.114 L27.836,21.378 L30.1,22.566 L33.288,20.786 L34.312,21.514 L34.312,22.794 L32.312,23.918 L35.5,25.81 L35.5,27.294 L34.148,27.91 L31.02,26.13 L31.02,28.49 L29.896,29.114 L28.796,28.49 L28.796,24.91 L26.484,23.59 L26.484,26.074 L24.264,24.722 L24.264,27.206 L27.396,28.986 L27.396,30.394 L26.32,30.934 L24.216,29.746 L24.216,33.526 L23,34.306 L21.788,33.526 z M20.92,20.082 L22.052,21.754 L24.164,21.754 L25.132,20.082 L24.108,18.302 L22,18.302 L20.92,20.082 z" fill="#FFFFFF"/>
      <path d="M21.788,33.526 L21.788,29.746 L19.676,30.934 L18.6,30.318 L18.6,28.99 L21.732,27.21 L21.732,24.726 L19.46,26.186 L19.46,23.554 L17.288,24.802 L17.288,28.374 L16.1,29.11 L15.096,28.446 L15.096,26.054 L11.8,27.914 L10.392,27.322 L10.392,25.814 L13.852,23.922 L11.688,22.838 L11.688,21.454 L12.916,20.782 L16.02,22.61 L18.176,21.366 L18.124,21.326 L15.92,20.062 L18.06,18.734 L15.912,17.49 L12.808,19.31 L11.644,18.73 L11.644,17.354 L13.744,16.174 L10.392,14.354 L10.392,12.846 L11.68,12.182 L14.988,14.09 L14.988,11.662 L15.984,10.99 L17.2,11.694 L17.192,15.33 L19.412,16.598 L19.404,14.026 L21.732,15.274 L21.732,12.79 L18.6,11.01 L18.6,9.69 L19.676,9.066 L21.788,10.254 L21.788,6.482 L23,5.694 L24.216,6.482 L24.216,10.254 L26.404,9.042 L27.504,9.77 L27.504,10.958 L24.264,12.794 L24.264,15.278 L26.484,13.926 L26.484,16.63 L28.764,15.386 L28.764,11.494 L29.864,10.978 L31.02,11.494 L31.02,13.978 L34.42,12.142 L35.608,12.87 L35.608,14.278 L32.288,16.166 L34.364,17.33 L34.364,18.678 L33.288,19.27 L30.1,17.386 L27.896,18.786 L30.028,20.114 L27.836,21.378 L30.1,22.566 L33.288,20.786 L34.312,21.514 L34.312,22.794 L32.312,23.918 L35.5,25.81 L35.5,27.294 L34.148,27.91 L31.02,26.13 L31.02,28.49 L29.896,29.114 L28.796,28.49 L28.796,24.91 L26.484,23.59 L26.484,26.074 L24.264,24.722 L24.264,27.206 L27.396,28.986 L27.396,30.394 L26.32,30.934 L24.216,29.746 L24.216,33.526 L23,34.306 L21.788,33.526 z M20.92,20.082 L22.052,21.754 L24.164,21.754 L25.132,20.082 L24.108,18.302 L22,18.302 L20.92,20.082 z" fill-opacity="0" stroke="#FFFFFF" stroke-width="1"/>
    </g>
  </g>
</svg>
