<?xml version="1.0" encoding="UTF-8"?>
<!DOCTYPE svg PUBLIC "-//W3C//DTD SVG 1.1//EN" "http://www.w3.org/Graphics/SVG/1.1/DTD/svg11.dtd">
<svg version="1.1" xmlns="http://www.w3.org/2000/svg" xmlns:xlink="http://www.w3.org/1999/xlink" x="0" y="0" width="23" height="23" viewBox="0, 0, 23, 23">
  <g id="Layer_1">
    <g>
      <g>
        <path d="M1.5,9.047 L1.5,1.5" fill="#0085DE"/>
        <path d="M1.5,9.047 L1.5,1.5" fill-opacity="0" stroke="#0085DE" stroke-width="3"/>
      </g>
      <g>
        <path d="M8.197,9.047 L8.197,1.5" fill="#0085DE"/>
        <path d="M8.197,9.047 L8.197,1.5" fill-opacity="0" stroke="#0085DE" stroke-width="3"/>
      </g>
      <g>
        <path d="M11.523,9.047 L11.523,1.5" fill="#0085DE"/>
        <path d="M11.523,9.047 L11.523,1.5" fill-opacity="0" stroke="#0085DE" stroke-width="3"/>
      </g>
      <g>
        <path d="M21.5,9.047 L21.5,1.5" fill="#0085DE"/>
        <path d="M21.5,9.047 L21.5,1.5" fill-opacity="0" stroke="#0085DE" stroke-width="3"/>
      </g>
      <g>
        <path d="M14.849,9.047 L14.849,1.5" fill="#0085DE"/>
        <path d="M14.849,9.047 L14.849,1.5" fill-opacity="0" stroke="#0085DE" stroke-width="3"/>
      </g>
      <g>
        <path d="M18.174,9.047 L18.174,1.5" fill="#0085DE"/>
        <path d="M18.174,9.047 L18.174,1.5" fill-opacity="0" stroke="#0085DE" stroke-width="3"/>
      </g>
      <g>
        <path d="M4.826,9.047 L4.871,1.5" fill="#0085DE"/>
        <path d="M4.826,9.047 L4.871,1.5" fill-opacity="0" stroke="#0085DE" stroke-width="3"/>
      </g>
      <path d="M3.163,5.059 L3.163,1.5" fill-opacity="0" stroke="#FFFFFF" stroke-width="2"/>
      <path d="M6.534,5.059 L6.534,1.5" fill-opacity="0" stroke="#FFFFFF" stroke-width="2"/>
      <path d="M19.837,5.059 L19.837,1.5" fill-opacity="0" stroke="#FFFFFF" stroke-width="2"/>
      <path d="M16.511,5.059 L16.511,1.5" fill-opacity="0" stroke="#FFFFFF" stroke-width="2"/>
      <path d="M13.186,5.059 L13.186,1.5" fill-opacity="0" stroke="#FFFFFF" stroke-width="2"/>
    </g>
  </g>
</svg>
