<?xml version="1.0" encoding="UTF-8"?>
<!DOCTYPE svg PUBLIC "-//W3C//DTD SVG 1.1//EN" "http://www.w3.org/Graphics/SVG/1.1/DTD/svg11.dtd">
<svg version="1.1" xmlns="http://www.w3.org/2000/svg" xmlns:xlink="http://www.w3.org/1999/xlink" x="0" y="0" width="23" height="23" viewBox="0, 0, 23, 23">
  <g id="lock">
    <g>
      <path d="M9.644,9.479 L13.356,9.479 C15.013,9.479 16.356,10.822 16.356,12.479 L16.356,17.639 C16.356,19.296 15.013,20.639 13.356,20.639 L9.644,20.639 C7.987,20.639 6.644,19.296 6.644,17.639 L6.644,12.479 C6.644,10.822 7.987,9.479 9.644,9.479 z" fill="#FFFFFF"/>
      <path d="M9.644,9.479 L13.356,9.479 C15.013,9.479 16.356,10.822 16.356,12.479 L16.356,17.639 C16.356,19.296 15.013,20.639 13.356,20.639 L9.644,20.639 C7.987,20.639 6.644,19.296 6.644,17.639 L6.644,12.479 C6.644,10.822 7.987,9.479 9.644,9.479 z" fill-opacity="0" stroke="#FFFFFF" stroke-width="1"/>
    </g>
    <path d="M11.5,12.958 C9.372,12.958 7.648,11.238 7.648,9.117 C7.648,6.996 9.372,5.277 11.5,5.277 C13.628,5.277 15.352,6.996 15.352,9.117 C15.352,11.238 13.628,12.958 11.5,12.958 z" fill-opacity="0" stroke="#FFFFFF" stroke-width="1"/>
  </g>
</svg>
