<?xml version="1.0" encoding="UTF-8"?>
<!DOCTYPE svg PUBLIC "-//W3C//DTD SVG 1.1//EN" "http://www.w3.org/Graphics/SVG/1.1/DTD/svg11.dtd">
<svg version="1.1" xmlns="http://www.w3.org/2000/svg" xmlns:xlink="http://www.w3.org/1999/xlink" x="0" y="0" width="46" height="40" viewBox="0, 0, 46, 40">
  <g id="subpatch">
    <g>
      <path d="M8.813,10.162 L37.117,10.162 C38.774,10.162 40.117,11.506 40.117,13.162 L40.117,26.289 C40.117,27.946 38.774,29.289 37.117,29.289 L8.813,29.289 C7.157,29.289 5.813,27.946 5.813,26.289 L5.813,13.162 C5.813,11.506 7.157,10.162 8.813,10.162 z" fill="#000000"/>
      <path d="M8.813,10.162 L37.117,10.162 C38.774,10.162 40.117,11.506 40.117,13.162 L40.117,26.289 C40.117,27.946 38.774,29.289 37.117,29.289 L8.813,29.289 C7.157,29.289 5.813,27.946 5.813,26.289 L5.813,13.162 C5.813,11.506 7.157,10.162 8.813,10.162 z" fill-opacity="0" stroke="#0085DE" stroke-width="1"/>
    </g>
    <g>
      <path d="M13.33,18.439 C14.12,18.955 14.326,20.039 13.79,20.86 C13.254,21.68 12.179,21.928 11.389,21.412 C10.598,20.896 10.393,19.812 10.929,18.991 C11.465,18.17 12.54,17.923 13.33,18.439 z" fill="#D4145A"/>
      <path d="M13.33,18.439 C14.12,18.955 14.326,20.039 13.79,20.86 C13.254,21.68 12.179,21.928 11.389,21.412 C10.598,20.896 10.393,19.812 10.929,18.991 C11.465,18.17 12.54,17.923 13.33,18.439 z" fill-opacity="0" stroke="#D4145A" stroke-width="1"/>
    </g>
    <g>
      <path d="M34.812,18.24 C35.602,18.755 35.808,19.839 35.272,20.66 C34.736,21.481 33.661,21.728 32.871,21.212 C32.081,20.696 31.875,19.612 32.411,18.792 C32.947,17.971 34.022,17.724 34.812,18.24 z" fill="#0085DE"/>
      <path d="M34.812,18.24 C35.602,18.755 35.808,19.839 35.272,20.66 C34.736,21.481 33.661,21.728 32.871,21.212 C32.081,20.696 31.875,19.612 32.411,18.792 C32.947,17.971 34.022,17.724 34.812,18.24 z" fill-opacity="0" stroke="#0085DE" stroke-width="1"/>
    </g>
  </g>
</svg>
